<svg width="259" height="74" viewBox="0 0 259 74" fill="none" xmlns="http://www.w3.org/2000/svg">
<path d="M52.1064 48.351L48.8204 48.8204C48.351 48.8204 47.8815 48.8204 47.4121 48.351L33.7987 22.5325C33.7987 22.0631 33.7987 21.5936 33.7987 21.1242L42.2484 11.2662C42.7178 10.7968 42.7178 10.7968 43.1873 10.7968L48.8204 11.2662C49.2898 11.2662 50.2287 10.7968 50.2287 10.3274V9.38854C50.2287 8.91911 49.7592 8.44968 49.2898 8.44968L33.3293 5.16369C32.8599 5.16369 31.921 5.63312 31.921 6.10255V8.44968C31.921 8.91911 32.3904 9.38854 32.8599 9.85796L34.7376 10.3274C35.6764 10.3274 36.1459 11.7357 35.207 12.2051L19.7159 30.9822V29.5739C19.7159 22.5325 19.7159 15.0217 19.7159 7.98026C19.7159 7.51083 20.1854 7.0414 20.1854 7.0414L25.349 4.69427C25.8185 4.69427 25.8185 4.22484 25.8185 3.75541V1.40828C26.2879 0.469427 25.349 0 24.8796 0L0.938854 4.69427C0.469427 4.69427 0 5.16369 0 5.63312V8.44968C0 8.91911 0.469427 9.38854 0.938854 9.85796L4.22484 10.3274C4.69427 10.3274 5.16369 10.7968 5.16369 11.2662C5.16369 17.3688 5.16369 23.4713 5.16369 29.5739V31.921C5.16369 38.0236 5.16369 44.1261 5.16369 50.2287C5.16369 50.6981 4.69427 51.1675 4.22484 51.1675L0.938854 51.6369C0.469427 51.6369 0 52.1064 0 53.0452V55.8618C0 56.3312 0.469427 56.8006 0.938854 56.8006L23.4713 61.0255C24.4102 61.0255 24.8796 60.5561 24.8796 60.0866V57.2701C24.8796 56.8006 24.8796 56.3312 24.4102 56.3312L21.5936 54.4535C21.1242 54.4535 21.1242 53.9841 21.1242 53.5147C21.1242 48.351 21.1242 42.7178 21.1242 37.5541C21.1242 37.0847 21.1242 37.0847 21.5936 36.6153L23.0019 34.7376C23.4713 34.2682 24.4102 34.2682 24.8796 35.207L31.921 50.2287C32.3904 51.1675 31.921 51.6369 30.9822 52.1064C30.5127 52.1064 30.0433 52.5758 30.0433 53.0452V55.3924C30.0433 56.3312 30.5127 56.8006 31.4516 56.3312L34.7376 55.8618H35.207L53.0452 52.5758C53.5147 52.5758 53.9841 52.1064 53.9841 51.6369V50.2287C53.5147 48.8204 53.0452 48.351 52.1064 48.351Z" fill="#EF4A68"/>
<path d="M72.7611 30.5127H54.9229C54.4535 30.5127 53.984 30.9821 53.984 31.4515L53.5146 32.8598C53.5146 33.3293 53.5146 33.7987 53.984 34.2681L56.3312 35.207C56.8006 35.6764 57.27 36.1458 56.8006 36.6152C56.3312 39.4318 55.3923 41.7789 54.4535 45.5344L53.5146 49.2898C52.5758 52.1063 51.6369 56.3312 50.2286 59.6172C50.2286 60.0866 49.7592 60.556 48.8204 60.556H46.9426C46.4732 60.556 46.0038 61.0254 45.5344 61.4949L45.0649 63.3726C45.0649 63.842 45.0649 64.3114 45.5344 64.7808L63.3726 73.7C63.842 74.1694 64.7809 73.7 65.2503 72.7611L65.7197 70.8834C65.7197 70.414 65.7197 69.9445 65.7197 69.9445L63.842 67.5974C63.842 67.128 63.3726 67.128 63.842 66.6586C64.7809 62.9031 66.6586 57.27 67.5974 53.5146L70.414 43.1872L73.7 32.3904C73.7 31.921 73.7 31.4515 73.2305 31.4515L72.7611 30.9821C73.2305 30.5127 73.2305 30.5127 72.7611 30.5127Z" fill="#FFBA53"/>
<path d="M125.337 63.8422L124.867 61.9645C124.867 61.495 124.398 61.0256 124.398 61.0256L122.52 60.0868C122.051 60.0868 122.051 59.6173 122.051 59.1479L116.887 16.4301L115.948 5.63325L115.009 5.16382C114.54 5.16382 114.54 5.16382 114.071 5.16382L97.6407 10.7969C97.1712 10.7969 96.7018 11.7358 96.7018 12.2052V13.6135C96.7018 14.0829 97.1712 14.5524 97.6407 14.5524H100.927C101.396 14.5524 101.866 15.0218 101.866 15.4912L103.274 24.8797C103.274 25.8186 102.335 26.288 101.396 26.288C99.5184 25.3492 96.7018 24.8797 93.8852 25.3492C85.4356 26.288 77.4553 35.2071 78.8636 48.3511C80.7413 61.495 88.2521 67.5976 97.1712 66.6587C100.927 66.1893 103.743 64.781 106.09 62.4339C106.56 61.9645 107.968 61.9645 107.968 62.9033L108.437 64.3116C108.437 64.781 108.907 65.2504 109.376 65.2504L124.398 66.1893C124.867 65.2504 125.337 64.3116 125.337 63.8422ZM102.804 57.2702C98.5795 57.7396 95.2935 53.5148 94.3547 45.5345C93.4158 36.6154 95.7629 31.9211 99.9878 31.4517C100.927 31.4517 101.396 31.4517 102.335 31.4517C102.804 31.9211 103.274 32.3906 103.274 32.86L106.09 55.3925C106.09 55.8619 106.09 56.3313 105.621 56.3313C104.682 56.8008 103.743 57.2702 102.804 57.2702Z" fill="#5B6DF7"/>
<path d="M124.398 29.1044C125.807 17.3688 135.665 10.3274 147.87 11.7356C160.075 13.6134 167.586 23.0019 165.708 34.7376C163.83 46.4732 155.38 54.4535 142.237 52.5758C128.623 50.6981 122.99 40.8401 124.398 29.1044ZM150.217 32.8598C151.625 21.5936 150.686 16.4299 147.4 15.9605C144.114 15.4911 141.767 19.7159 140.359 31.4516C138.951 42.7178 139.889 47.8815 143.175 48.3509C146.461 48.8204 148.808 44.5955 150.217 32.8598Z" fill="#FFBA53"/>
<path d="M187.771 56.8007C187.301 56.8007 187.301 56.3312 187.301 55.8618C187.301 51.1675 187.301 46.9427 187.301 42.2484V13.6134L187.771 2.81659L186.832 2.34717C186.362 2.34717 186.362 2.34717 185.893 2.34717L168.994 5.16373C168.524 5.16373 168.055 5.63315 168.055 6.10258V7.51086C168.055 7.98029 168.524 8.44972 168.994 8.44972L171.341 9.38857C171.81 9.38857 172.28 9.858 172.28 10.3274V42.2484C172.28 46.0039 172.28 49.2898 172.28 53.0453C172.28 53.5147 171.81 53.9841 171.341 53.9841L169.463 54.4535C168.994 54.4535 168.524 54.923 168.524 55.3924V57.7395C168.524 58.209 168.994 58.6784 169.463 58.6784L189.648 62.4338C190.587 62.4338 191.057 61.9644 191.057 61.4949V59.6172C191.057 59.1478 191.057 58.6784 190.587 58.6784L187.771 56.8007Z" fill="#EF4A68"/>
<path d="M234.244 49.7593C233.775 49.2899 233.305 49.2899 232.836 49.7593C232.366 50.2287 231.897 50.6981 230.958 50.6981C230.019 50.6981 229.55 50.2287 229.55 49.2899L231.428 31.4516C232.366 20.6548 229.08 15.9606 218.284 14.5523C205.609 13.144 198.568 16.8994 197.629 23.9408V24.4102C198.098 27.2268 199.976 28.6351 203.262 29.1045C206.548 29.5739 209.834 27.2268 210.773 21.1243L211.242 17.8383C211.712 17.8383 212.181 17.8383 212.651 17.8383C217.814 18.3077 218.284 20.6548 217.814 27.2268V29.1045C217.814 29.5739 217.345 30.0434 216.875 30.0434C215.467 30.0434 214.059 30.5128 212.651 30.5128C199.507 32.3905 195.751 36.1459 194.812 42.2485C194.343 48.8204 197.629 53.0453 203.731 53.5147C208.895 53.9841 211.242 52.5759 214.059 50.2287C214.528 49.7593 215.467 49.7593 215.937 50.6981C217.345 53.5147 219.692 55.3924 223.917 55.8618C229.08 56.3313 232.366 54.923 234.714 51.1676C235.183 51.1676 235.183 50.2287 234.244 49.7593ZM208.426 41.779C208.895 37.5542 212.181 35.2071 214.528 34.7376C214.998 34.2682 215.937 34.2682 216.875 34.2682L215.467 46.9427C215.467 47.4122 214.998 47.8816 214.998 47.8816C213.589 48.351 213.12 48.8204 212.181 48.8204C209.834 47.4122 207.956 45.5344 208.426 41.779Z" fill="#5B6DF7"/>
<path d="M64.7808 19.716L63.8419 18.7771C61.0254 15.9605 61.0254 11.2663 63.8419 8.44971L64.7808 7.51086C67.5973 4.6943 72.2916 4.6943 75.1082 7.51086L76.047 8.44971C78.8636 11.2663 78.8636 15.9605 76.047 18.7771L75.1082 19.716C72.2916 22.5325 67.5973 22.5325 64.7808 19.716Z" fill="#EF4A68"/>
<path d="M238.236 10.6128C238.132 10.4096 238.057 10.1569 238.01 9.85468C237.463 10.4643 236.751 10.7691 235.876 10.7691C235.048 10.7691 234.36 10.5294 233.813 10.0501C233.271 9.57071 233 8.96631 233 8.23685C233 7.34066 233.331 6.65289 233.993 6.17353C234.66 5.69417 235.621 5.45189 236.877 5.44668H237.916V4.96211C237.916 4.57133 237.814 4.25871 237.611 4.02424C237.413 3.78977 237.098 3.67254 236.666 3.67254C236.285 3.67254 235.986 3.76372 235.767 3.94608C235.553 4.12845 235.446 4.37855 235.446 4.69638H233.188C233.188 4.2066 233.339 3.7533 233.641 3.33647C233.943 2.91964 234.37 2.59399 234.923 2.35952C235.475 2.11984 236.095 2 236.783 2C237.825 2 238.651 2.26313 239.26 2.78938C239.875 3.31042 240.183 4.04508 240.183 4.99338V8.65889C240.188 9.46129 240.3 10.0683 240.519 10.4799V10.6128H238.236ZM236.369 9.04186C236.702 9.04186 237.009 8.96891 237.291 8.82302C237.572 8.67192 237.781 8.47132 237.916 8.22122V6.76752H237.072C235.941 6.76752 235.339 7.1583 235.267 7.93986L235.259 8.07272C235.259 8.35408 235.358 8.58595 235.556 8.76831C235.754 8.95067 236.025 9.04186 236.369 9.04186Z" fill="#5B6DF7"/>
<path d="M249.53 6.46271C249.53 7.76531 249.233 8.80999 248.639 9.59676C248.05 10.3783 247.253 10.7691 246.247 10.7691C245.393 10.7691 244.703 10.4721 244.176 9.87812V13.8641H241.918V2.15631H244.012L244.09 2.98477C244.637 2.32826 245.351 2 246.232 2C247.274 2 248.084 2.38557 248.662 3.15671C249.241 3.92785 249.53 4.99077 249.53 6.34547V6.46271ZM247.271 6.29858C247.271 5.51181 247.131 4.9048 246.849 4.47755C246.573 4.05029 246.169 3.83667 245.638 3.83667C244.929 3.83667 244.442 4.10761 244.176 4.64949V8.1118C244.452 8.66931 244.945 8.94807 245.653 8.94807C246.732 8.94807 247.271 8.06491 247.271 6.29858Z" fill="#5B6DF7"/>
<path d="M258.549 6.46271C258.549 7.76531 258.252 8.80999 257.658 9.59676C257.069 10.3783 256.272 10.7691 255.267 10.7691C254.412 10.7691 253.722 10.4721 253.196 9.87812V13.8641H250.937V2.15631H253.031L253.11 2.98477C253.657 2.32826 254.37 2 255.251 2C256.293 2 257.103 2.38557 257.682 3.15671C258.26 3.92785 258.549 4.99077 258.549 6.34547V6.46271ZM256.29 6.29858C256.29 5.51181 256.15 4.9048 255.868 4.47755C255.592 4.05029 255.188 3.83667 254.657 3.83667C253.948 3.83667 253.461 4.10761 253.196 4.64949V8.1118C253.472 8.66931 253.964 8.94807 254.673 8.94807C255.751 8.94807 256.29 8.06491 256.29 6.29858Z" fill="#5B6DF7"/>
</svg>
